{"title":"1920 HINDI DVD-RIP XVID - DOUBLE","uid":7122645,"size":836764244,"categoryP":"video","categoryS":"movies","magnet":"?xt=urn:btih:83b06203aa354e7fccb0a5e6c7af5aedf5a42f58&amp;dn=1920+HINDI+DVD-RIP+XVID+-+DOUBLE&amp;tr=udp%3A%2F%2Ftracker.openbittorrent.com%3A80&amp;tr=udp%3A%2F%2Fopen.demonii.com%3A1337&amp;tr=udp%3A%2F%2Ftracker.coppersurfer.tk%3A6969&amp;tr=udp%3A%2F%2Fexodus.desync.com%3A6969","seeders":0,"leechers":0,"uploader":"Bacau001","files":2,"time":1332415540,"description":"1920 HINDI DVD-RIP XVID - DOUBLE\n\nStoryline\n\nA devotee of Bhagwan Shri Hanuman, Arjun Singh Rathod is in love with Lisa, a Christian, who was sired by an Indian mother and Caucasian father, runs into problems with his father, who wants him to marry a Hindu. He decides to break all ties with his family, both turn atheist, get married, and re-locate to live in 1920s Bombay. The duo then re-locate to renovate a mansion in Palanpur. Shortly after their arrival Lisa suspects that there is something odd about a particular room in the mansion but Arjun dismisses this. He will soon regret this, as well of forsaking their respective religions, after he finds Lisa possessed by what appears to be a demonic and seemingly invincible male entity. \n\n\nGenres:\nDrama | Horror | Mystery | Romance | Thriller \n\n\nCountry:\nIndia\n\nLanguage:\nHindi\n\nRelease Date:\n12 September 2008\n\n\nDirected By : Vikram Bhatt\n\nProduced By : Vikram Bhatt, Amita Bishnoi, Bhagwanti Gabrani, Surendra Sharma\n\nMusic Director : Adnan Sami\n\nCast : Rajneesh Duggal, Adah Sharma, Rakhi Sawant, Anjori Alagh, Raj Zutshi, Shri Vallabh Vyas, Asha Sharma, Amin Hajee, Vipin Sharma\n\nBanner : ASA Production &amp; Enterprises\n\nWriters : Vikram Bhatt\n\n\nFormat                           : AVI\nFormat/Info                      : Audio Video Interleave\nFormat profile                   : OpenDML\nOverall bit rate                 : 1 800 Kbps\nWriting application              : VirtualDubMod 1.5.10.2 (build 2542/release)\nWriting library                  : VirtualDubMod build 2542/release\n\n\nVideo\nID                               : 0\nFormat                           : MPEG-4 Visual\nFormat profile                   : AdvancedSimple@L5\nFormat settings, BVOP            : Yes\nFormat settings, QPel            : No\nFormat settings, GMC             : No warppoints\nFormat settings, Matrix          : Default (MPEG)\nCodec ID                         : XVID\nCodec ID/Hint                    : XviD\nBit rate                         : 1 411 Kbps\nWidth                            : 640 pixels\nHeight                           : 272 pixels\nDisplay aspect ratio             : 2.35:1\nFrame rate                       : 23.976 fps\nResolution                       : 24 bits\nColorimetry                      : 4:2:0\nScan type                        : Progressive\nBits/(Pixel*Frame)               : 0.338\nStream size                      : 1.03 GiB (78%)\nWriting library                  : XviD 64\n\nAudio\nID                               : 1\nFormat                           : AC-3\nFormat/Info                      : Audio Coding 3\nCodec ID                         : 2000\nBit rate mode                    : Constant\nBit rate                         : 384 Kbps\nChannel(s)                       : 6 channels\nChannel positions                : Front: L C R, Surround: L R, LFE\nSampling rate                    : 48.0 KHz\nStream size                      : 287 MiB (21%)\nAlignment                        : Aligned on interleaves\nInterleave, duration             : 64 ms (1.53 video frames)\nInterleave, preload duration     : 192 ms\n\n\n\n","torrent":{"xt":"urn:btih:83b06203aa354e7fccb0a5e6c7af5aedf5a42f58","amp;dn":"1920+HINDI+DVD-RIP+XVID+-+DOUBLE","amp;tr":["udp%3A%2F%2Ftracker.openbittorrent.com%3A80","udp%3A%2F%2Fopen.demonii.com%3A1337","udp%3A%2F%2Ftracker.coppersurfer.tk%3A6969","udp%3A%2F%2Fexodus.desync.com%3A6969"],"infoHash":"83b06203aa354e7fccb0a5e6c7af5aedf5a42f58","infoHashBuffer":{"type":"Buffer","data":[131,176,98,3,170,53,78,127,204,176,165,230,199,175,90,237,245,164,47,88]},"announce":[],"urlList":[]}}